<svg width="24" height="24" viewBox="0 0 24 24" fill="none" xmlns="http://www.w3.org/2000/svg">
<path d="M24 0V24H0V0H24Z" fill="white" fill-opacity="0.01"/>
<path d="M3.00012 19.9999C3.00012 19.9999 3.4281 15.764 6.58284 11.2585C8.87679 7.98245 14.0001 3.99991 14.0001 3.99991M10.0001 3.99991C10.0001 3.99991 15.1853 7.94 17.4174 11.2586C20.4876 15.8232 21.0001 19.9999 21.0001 19.9999M2.00012 19.9999H22.0001M8.5387 19.9999V19.9999C9.87225 16.5326 10.539 14.799 11.6514 14.6019C11.8821 14.5611 12.1183 14.5611 12.349 14.6019C13.4614 14.799 14.1281 16.5326 15.4617 19.9999V19.9999" stroke="#9C6403" stroke-width="2" stroke-linecap="round" stroke-linejoin="round"/>
</svg>
