<svg width="38" height="27" viewBox="0 0 38 27" fill="none" xmlns="http://www.w3.org/2000/svg">
<path d="M0.548001 17.6684C-1.37922 13.083 2.23709 8.00462 4.28614 6.03863C4.35259 5.77282 4.86763 5.70635 5.11684 5.70634C5.44912 5.70634 6.16352 5.63989 6.36289 5.37406C6.56226 5.10824 6.889 5.04178 7.02745 5.04178C7.1659 4.95871 7.45941 4.74273 7.52587 4.54337C7.59232 4.344 7.7197 4.1834 7.77508 4.12802C7.88584 4.01726 8.19043 3.69605 8.52271 3.29732C8.85499 2.89858 10.6548 1.6913 11.5132 1.1375C14.7696 -0.922626 17.4666 0.279117 18.408 1.1375C18.3526 1.24826 18.7901 1.51963 20.9832 1.71899C23.1762 1.91836 24.4998 3.79574 24.8875 4.70951C25.6185 4.97533 28.0718 6.3709 29.2071 7.03546C29.0963 6.9247 29.556 6.50382 32.2807 5.70635C35.6865 4.70952 37.1818 6.86933 37.5141 8.11538C37.8463 9.36142 37.5141 10.5244 37.1818 11.7704C36.916 12.7673 37.2925 14.3456 37.5141 15.0102C38.6438 18.7982 37.5418 20.6312 36.8495 21.0743C34.3242 23.799 30.9239 22.5972 29.5394 21.6558C28.8084 22.719 26.7427 23.594 25.8012 23.8986C25.1367 24.8955 24.306 25.56 21.98 26.3077C19.6541 27.0553 17.8265 25.56 17.4942 25.56C7.94122 25.477 2.95703 23.4002 0.548001 17.6684Z" fill="url(#paint0_radial_429_1053)"/>
<path d="M4.83956 6.37105C4.6402 6.03877 5.86409 5.9557 6.50096 5.9557C6.83324 5.62342 6.99938 5.70649 7.33166 5.54035C7.59748 5.40744 7.88545 4.93118 7.99621 4.70966L8.49463 3.96203C8.66077 3.71282 9.32533 3.38054 9.49147 3.29747C9.62438 3.23101 9.54685 3.87896 9.49147 4.21124C9.4084 4.34969 9.20903 4.77611 9.07612 5.37422C8.94321 5.97232 7.30397 6.56488 6.50096 6.7864C6.03023 6.7864 5.03893 6.70333 4.83956 6.37105Z" fill="#9C6403"/>
<circle cx="5.81471" cy="12.4351" r="0.996838" fill="#9D6403"/>
<path d="M9.63623 6.28784C10.2454 6.75857 11.281 8.3812 10.55 11.1059C11.4915 12.8504 12.6267 17.0205 9.63623 19.7451" stroke="#9C6403" stroke-width="1.16298" stroke-linecap="round" stroke-linejoin="round"/>
<path d="M15.7002 5.45703C16.5863 5.5401 18.0594 6.33757 16.8632 8.86289C17.5831 9.41669 18.591 10.84 16.8632 12.1026" stroke="#9C6403" stroke-width="1.16298" stroke-linecap="round" stroke-linejoin="round"/>
<path d="M14.5376 11.7703C15.1468 12.1025 16.6642 12.8169 17.8604 13.0163C19.0566 13.2157 19.8541 14.5393 20.1033 15.1761C20.1863 15.9238 19.771 17.8177 17.445 19.4127C17.0851 19.5511 16.1824 19.8114 15.4514 19.745" stroke="#9C6403" stroke-width="1.16298" stroke-linecap="round" stroke-linejoin="round"/>
<path d="M15.4512 15.5916C15.6727 15.7577 16.232 16.09 16.6972 16.09" stroke="#9C6403" stroke-width="1.16298" stroke-linecap="round" stroke-linejoin="round"/>
<path d="M22.0967 8.77979C23.0658 9.16744 24.6718 10.5741 23.3427 13.0994C23.9796 13.6255 24.9377 15.0765 23.675 16.6714C24.0073 17.4467 24.2565 19.1635 22.5951 19.8281" stroke="#9C6403" stroke-width="1.16298" stroke-linecap="round" stroke-linejoin="round"/>
<path d="M27.247 11.7703C27.7177 11.7703 28.4931 12.1192 27.8285 13.5147C28.3546 14.29 28.8586 16.1397 26.6655 17.3359" stroke="#9C6403" stroke-width="1.16298" stroke-linecap="round" stroke-linejoin="round"/>
<path d="M31.1514 9.02906C31.8436 9.05675 33.5105 8.9626 34.6403 8.3645" stroke="#9C6403" stroke-width="1.16298" stroke-linecap="round" stroke-linejoin="round"/>
<path d="M31.9819 12.1858C32.7849 12.435 34.5737 12.9168 35.3047 12.8503" stroke="#9C6403" stroke-width="1.16298" stroke-linecap="round" stroke-linejoin="round"/>
<path d="M32.3145 16.0901C33.1452 16.6439 34.873 17.901 35.1388 18.4991" stroke="#9C6403" stroke-width="1.16298" stroke-linecap="round" stroke-linejoin="round"/>
<path d="M31.6499 18.8313L32.2314 19.4959" stroke="#9C6403" stroke-width="1.16298" stroke-linecap="round" stroke-linejoin="round"/>
<path d="M6.97763 6.0386C6.31307 6.5038 6.45153 6.67547 6.64536 6.78623C7.50929 6.58687 8.38982 6.17705 8.63903 5.95554C8.91593 5.76171 9.30161 5.18233 9.1687 4.71713C9.03579 4.25194 8.63903 4.5018 8.38981 4.79257C8.22367 4.9864 7.64219 5.57341 6.97763 6.0386Z" fill="#F3F3F3"/>
<defs>
<radialGradient id="paint0_radial_429_1053" cx="0" cy="0" r="1" gradientUnits="userSpaceOnUse" gradientTransform="translate(19 13.2585) rotate(130.53) scale(45.7276 59.9043)">
<stop stop-color="#FECE62"/>
<stop offset="1" stop-color="#996D09"/>
</radialGradient>
</defs>
</svg>
