<svg width="18" height="18" viewBox="0 0 18 18" fill="none" xmlns="http://www.w3.org/2000/svg">
<path d="M16.418 3H1.58203C0.708293 3 0 3.70829 0 4.58203V13.7227C0 14.5964 0.708293 15.3047 1.58203 15.3047H16.418C17.2917 15.3047 18 14.5964 18 13.7227V4.58203C18 3.70829 17.2917 3 16.418 3ZM15.1521 12.0489C14.9304 12.2375 14.5974 12.2108 14.4087 11.9889L11.365 8.4102L9.26132 9.61039C9.09935 9.70279 8.90061 9.70275 8.73872 9.61039L6.635 8.4102L3.59128 11.9888C3.4027 12.2106 3.06981 12.2376 2.84794 12.0489C2.62607 11.8602 2.59921 11.5274 2.78789 11.3055L5.7028 7.87835L3.11372 6.40123C2.86073 6.25695 2.77267 5.93484 2.91695 5.68189C3.0613 5.42888 3.38333 5.34084 3.63632 5.48513C3.85087 5.6075 8.75805 8.4071 9 8.54516C9.24166 8.40728 14.1486 5.60786 14.3637 5.48513C14.6166 5.34081 14.9387 5.42888 15.0831 5.68189C15.2273 5.93484 15.1393 6.25691 14.8863 6.40123L12.2972 7.87835L15.2121 11.3055C15.4008 11.5274 15.3739 11.8602 15.1521 12.0489Z" fill="black"/>
</svg>
