<svg width="20" height="20" viewBox="0 0 20 20" fill="none" xmlns="http://www.w3.org/2000/svg">
<rect width="20" height="20" rx="10" fill="#FFF0CE"/>
<path d="M9.36965 11.4409C9.36965 10.1935 9.64981 9.49462 10.6537 8.86022C11.4358 8.34409 11.821 7.94624 11.821 7.35484C11.821 6.52688 11.1673 5.97849 10.0467 5.97849C8.83268 5.97849 8.22568 6.78495 8.19066 7.52688H7C7.03502 6.15054 8.24903 5 10.035 5C11.9261 5 13 6.01075 13 7.35484C13 8.12903 12.5564 8.76344 11.7043 9.32258C10.6654 9.9785 10.5136 10.5806 10.5136 11.4409H9.36965ZM9.96498 14C9.48638 14 9.11284 13.6559 9.11284 13.2043C9.11284 12.7634 9.48638 12.4194 9.96498 12.4194C10.4553 12.4194 10.8288 12.7634 10.8288 13.2043C10.8288 13.6559 10.4553 14 9.96498 14Z" fill="#FFA914"/>
</svg>
