<svg width="20" height="21" viewBox="0 0 20 21" fill="none" xmlns="http://www.w3.org/2000/svg">
<path d="M18.5 9.42859C18.5 13.0434 16.0098 15.9468 13.7251 17.8499C12.3275 19.014 11.6287 19.5961 10 19.5961C8.37133 19.5961 7.67251 19.014 6.27486 17.8499C3.99017 15.9468 1.5 13.0434 1.5 9.42859C1.5 4.73417 5.30558 0.928589 10 0.928589C14.6944 0.928589 18.5 4.73417 18.5 9.42859Z" stroke="white" stroke-width="1.7"/>
<path d="M13 9.50085C13 11.1577 11.6569 12.5009 10 12.5009C8.34315 12.5009 7 11.1577 7 9.50085C7 7.844 8.34315 6.50085 10 6.50085C11.6569 6.50085 13 7.844 13 9.50085Z" stroke="white" stroke-width="1.7"/>
</svg>
