<svg width="24" height="24" viewBox="0 0 24 24" fill="none" xmlns="http://www.w3.org/2000/svg">
<path d="M24 0V24H0V0H24Z" fill="white" fill-opacity="0.01"/>
<path d="M20.5 10.9286C20.5 14.5434 18.0098 17.4468 15.7251 19.3498C14.3275 20.514 13.6287 21.0961 12 21.0961C10.3713 21.0961 9.67251 20.514 8.27486 19.3498C5.99017 17.4468 3.5 14.5434 3.5 10.9286C3.5 6.23414 7.30558 2.42856 12 2.42856C16.6944 2.42856 20.5 6.23414 20.5 10.9286Z" stroke="#9C6403" stroke-width="2"/>
<path d="M15 11.0008C15 12.6577 13.6569 14.0008 12 14.0008C10.3431 14.0008 9 12.6577 9 11.0008C9 9.34397 10.3431 8.00082 12 8.00082C13.6569 8.00082 15 9.34397 15 11.0008Z" stroke="#9C6403" stroke-width="2"/>
</svg>
