<svg width="24" height="24" viewBox="0 0 24 24" fill="none" xmlns="http://www.w3.org/2000/svg">
<path d="M24 0V24H0V0H24Z" fill="white" fill-opacity="0.01"/>
<path d="M20.5 10.9286C20.5 14.5434 18.0098 17.4468 15.7251 19.3499C14.3275 20.514 13.6287 21.0961 12 21.0961C10.3713 21.0961 9.67251 20.514 8.27486 19.3499C5.99017 17.4468 3.5 14.5434 3.5 10.9286C3.5 6.23417 7.30558 2.42859 12 2.42859C16.6944 2.42859 20.5 6.23417 20.5 10.9286Z" stroke="#747474" stroke-width="1.5"/>
<path d="M15 11.0009C15 12.6577 13.6569 14.0009 12 14.0009C10.3431 14.0009 9 12.6577 9 11.0009C9 9.344 10.3431 8.00085 12 8.00085C13.6569 8.00085 15 9.344 15 11.0009Z" stroke="#747474" stroke-width="1.5"/>
</svg>
