<svg width="17" height="17" viewBox="0 0 17 17" fill="none" xmlns="http://www.w3.org/2000/svg">
<path d="M4.9937 4.4553V5.02218C5.19532 5.02218 5.38177 4.91509 5.48336 4.74094L4.9937 4.4553ZM6.12746 2.51172V1.94484C5.92584 1.94484 5.73939 2.05193 5.6378 2.22608L6.12746 2.51172ZM10.3386 2.51172L10.8282 2.22608C10.7266 2.05193 10.5402 1.94484 10.3386 1.94484V2.51172ZM11.4723 4.4553L10.9827 4.74094C11.0842 4.91509 11.2707 5.02218 11.4723 5.02218V4.4553ZM2.32127 12.7155V6.07496H1.18752V12.7155H2.32127ZM3.37405 5.02218H4.9937V3.88842H3.37405V5.02218ZM5.48336 4.74094L6.61712 2.79735L5.6378 2.22608L4.50404 4.16967L5.48336 4.74094ZM6.12746 3.0786H10.3386V1.94484H6.12746V3.0786ZM9.8489 2.79735L10.9827 4.74094L11.962 4.16967L10.8282 2.22608L9.8489 2.79735ZM11.4723 5.02218H13.092V3.88842H11.4723V5.02218ZM14.1447 6.07496V12.7155H15.2785V6.07496H14.1447ZM14.1447 12.7155C14.1447 13.297 13.6734 13.7683 13.092 13.7683V14.9021C14.2996 14.9021 15.2785 13.9231 15.2785 12.7155H14.1447ZM13.092 5.02218C13.6734 5.02218 14.1447 5.49353 14.1447 6.07496H15.2785C15.2785 4.86737 14.2996 3.88842 13.092 3.88842V5.02218ZM2.32127 6.07496C2.32127 5.49353 2.79262 5.02218 3.37405 5.02218V3.88842C2.16646 3.88842 1.18752 4.86737 1.18752 6.07496H2.32127ZM3.37405 13.7683C2.79262 13.7683 2.32127 13.297 2.32127 12.7155H1.18752C1.18752 13.9231 2.16646 14.9021 3.37405 14.9021V13.7683ZM10.0956 8.99033C10.0956 10.019 9.2617 10.8529 8.23301 10.8529V11.9867C9.88785 11.9867 11.2294 10.6452 11.2294 8.99033H10.0956ZM8.23301 10.8529C7.20432 10.8529 6.37041 10.019 6.37041 8.99033H5.23665C5.23665 10.6452 6.57817 11.9867 8.23301 11.9867V10.8529ZM6.37041 8.99033C6.37041 7.96165 7.20432 7.12773 8.23301 7.12773V5.99397C6.57817 5.99397 5.23665 7.33549 5.23665 8.99033H6.37041ZM8.23301 7.12773C9.2617 7.12773 10.0956 7.96165 10.0956 8.99033H11.2294C11.2294 7.33549 9.88785 5.99397 8.23301 5.99397V7.12773ZM13.092 13.7683H3.37405V14.9021H13.092V13.7683Z" fill="white"/>
</svg>
