<svg width="32" height="31" viewBox="0 0 32 31" fill="none" xmlns="http://www.w3.org/2000/svg">
<path d="M14.0979 1.85409C14.6966 0.0114729 17.3034 0.0114794 17.9021 1.8541L20.5417 9.97806C20.6488 10.3077 20.956 10.5309 21.3026 10.5309H29.8446C31.7821 10.5309 32.5876 13.0101 31.0202 14.1489L24.1096 19.1698C23.8292 19.3735 23.7118 19.7346 23.8189 20.0642L26.4586 28.1882C27.0573 30.0308 24.9483 31.563 23.3809 30.4242L16.4702 25.4033C16.1898 25.1996 15.8102 25.1996 15.5298 25.4033L8.61912 30.4242C7.05169 31.563 4.94273 30.0308 5.54143 28.1882L8.18107 20.0642C8.28817 19.7346 8.17084 19.3735 7.89045 19.1698L0.979801 14.1489C-0.587626 13.0101 0.217921 10.5309 2.15537 10.5309H10.6974C11.044 10.5309 11.3512 10.3077 11.4583 9.97806L14.0979 1.85409Z" fill="gray"/>
</svg>
