<svg width="33" height="31" viewBox="0 0 33 31" fill="none" xmlns="http://www.w3.org/2000/svg">
<path d="M14.5979 1.85409C15.1966 0.0114732 17.8034 0.0114794 18.4021 1.8541L21.0417 9.97806C21.1488 10.3077 21.456 10.5309 21.8026 10.5309H30.3446C32.2821 10.5309 33.0876 13.0101 31.5202 14.1489L24.6096 19.1698C24.3292 19.3735 24.2118 19.7346 24.3189 20.0642L26.9586 28.1882C27.5573 30.0308 25.4483 31.563 23.8809 30.4242L16.9702 25.4033C16.6898 25.1996 16.3102 25.1996 16.0298 25.4033L9.11912 30.4242C7.55169 31.563 5.44273 30.0308 6.04143 28.1882L8.68107 20.0642C8.78817 19.7346 8.67084 19.3735 8.39045 19.1698L1.4798 14.1489C-0.0876262 13.0101 0.717921 10.5309 2.65537 10.5309H11.1974C11.544 10.5309 11.8512 10.3077 11.9583 9.97806L14.5979 1.85409Z" fill="#FFA914"/>
</svg>
